<svg width="83" height="83" viewBox="0 0 83 83" fill="none" xmlns="http://www.w3.org/2000/svg">
<g filter="url(#filter0_d)">
<path fill-rule="evenodd" clip-rule="evenodd" d="M47.832 16.6328C48.7982 13.5156 49.8281 10.444 50.9219 7.41797C50.6667 7.38151 50.3294 7.34505 49.9102 7.30859C49.5091 7.25391 49.0716 7.20833 48.5977 7.17188C48.1237 7.11719 47.6497 7.08073 47.1758 7.0625C46.7201 7.02604 46.3099 6.9987 45.9453 6.98047C45.5807 7.83724 45.1706 8.9401 44.7148 10.2891C44.2591 11.6198 43.7669 13.1328 43.2383 14.8281C42.7279 16.5234 42.1901 18.3646 41.625 20.3516C41.0781 22.3385 40.5312 24.3984 39.9844 26.5312C38.7995 28.5365 37.569 30.3503 36.293 31.9727C35.0352 33.5768 33.8685 34.944 32.793 36.0742C31.7174 37.2044 30.7969 38.0612 30.0312 38.6445C29.2656 39.2279 28.7826 39.4922 28.582 39.4375C28.418 39.401 28.2812 39.1732 28.1719 38.7539C28.0807 38.3164 28.0078 37.7695 27.9531 37.1133C27.8984 36.4388 27.8529 35.6914 27.8164 34.8711C27.7982 34.0326 27.7891 33.1849 27.7891 32.3281V29.8398C27.8073 29.0195 27.8255 28.2995 27.8438 27.6797C27.862 26.2031 27.9258 24.6992 28.0352 23.168C28.1628 21.6185 28.3086 20.1237 28.4727 18.6836C28.6367 17.2253 28.819 15.849 29.0195 14.5547C29.2201 13.2604 29.4023 12.112 29.5664 11.1094C29.7487 10.1068 29.9036 9.28646 30.0312 8.64844C30.1589 8.01042 30.2409 7.61849 30.2773 7.47266C30.1497 7.32682 29.9128 7.0625 29.5664 6.67969C29.2201 6.29688 28.8099 5.85938 28.3359 5.36719C27.8802 4.875 27.3971 4.36458 26.8867 3.83594C26.3763 3.28906 25.8932 2.78776 25.4375 2.33203C24.9818 1.85807 24.5807 1.46615 24.2344 1.15625C23.9062 0.846354 23.6966 0.673177 23.6055 0.636719C23.0404 4.92057 22.6029 8.82161 22.293 12.3398C22.0013 15.8398 21.7826 19.0299 21.6367 21.9102C21.418 21.6914 21.1901 21.4727 20.9531 21.2539C20.7161 21.0352 20.4609 20.8073 20.1875 20.5703C17.7083 26.5677 15.1016 31.6992 12.3672 35.9648C9.63281 40.2122 6.9349 43.5026 4.27344 45.8359C4.47396 46.0911 4.71094 46.3555 4.98438 46.6289C5.25781 46.9206 5.54036 47.2031 5.83203 47.4766C6.10547 47.7682 6.37891 48.0417 6.65234 48.2969C6.90755 48.5521 7.1263 48.7799 7.30859 48.9805C7.65495 48.707 8.14714 48.2513 8.78516 47.6133C9.40495 46.9935 10.1159 46.2552 10.918 45.3984C11.7018 44.5234 12.5495 43.5664 13.4609 42.5273C14.3724 41.4701 15.293 40.3854 16.2227 39.2734C17.1706 38.1432 18.1003 37.013 19.0117 35.8828C19.9232 34.7526 20.7708 33.6771 21.5547 32.6562C21.6458 35.2083 21.7917 37.168 21.9922 38.5352C22.2109 39.9023 22.4115 40.7318 22.5938 41.0234C22.776 41.3151 23.0859 41.6797 23.5234 42.1172C23.9792 42.5547 24.4714 42.9557 25 43.3203C25.5469 43.6849 26.0938 43.9583 26.6406 44.1406C27.1875 44.3229 27.6523 44.3047 28.0352 44.0859C28.9648 43.5938 29.9674 42.9284 31.043 42.0898C31.9727 41.3789 33.0299 40.4401 34.2148 39.2734C35.418 38.0885 36.6758 36.612 37.9883 34.8438C37.5508 36.8307 37.1406 38.7995 36.7578 40.75C36.3932 42.7005 36.0651 44.5781 35.7734 46.3828C35.5 48.2057 35.2812 49.9375 35.1172 51.5781C34.9531 53.2188 34.862 54.7227 34.8438 56.0898C35.0625 55.9805 35.3815 55.8164 35.8008 55.5977C36.2201 55.3789 36.6849 55.1328 37.1953 54.8594C37.724 54.5859 38.2708 54.3034 38.8359 54.0117C39.401 53.7201 39.9388 53.4284 40.4492 53.1367C40.7954 52.9577 41.1181 52.7825 41.4173 52.6113C40.9508 53.7463 40.4862 54.855 40.0234 55.9375C39.0208 58.3073 38.0456 60.513 37.0977 62.5547C36.1497 64.5781 35.2747 66.3828 34.4727 67.9688C34.9831 68.3333 35.612 68.7526 36.3594 69.2266C37.1068 69.7188 37.8815 70.2839 38.6836 70.9219C40.3971 67.6771 42.0195 64.5143 43.5508 61.4336C45.1003 58.3529 46.6042 55.2357 48.0625 52.082C49.776 57.168 51.362 61.5521 52.8203 65.2344C54.2969 68.9167 55.6094 71.9518 56.7578 74.3398C57.2135 74.1393 57.806 73.8659 58.5352 73.5195C59.2826 73.1732 60.0208 72.8177 60.75 72.4531C61.4792 72.1068 62.1354 71.7878 62.7188 71.4961C63.3021 71.2227 63.6849 71.0495 63.8672 70.9766C62.0807 68.8255 60.2031 66.237 58.2344 63.2109C56.2839 60.1667 54.1237 56.5755 51.7539 52.4375C54.9622 50.4688 57.8333 48.582 60.3672 46.7773C62.901 44.9544 65.2161 43.1589 67.3125 41.3906C69.4271 39.6224 71.3867 37.8542 73.1914 36.0859C74.9961 34.2995 76.7826 32.4583 78.5508 30.5625C78.1315 30.2161 77.6576 29.8151 77.1289 29.3594C76.6003 28.8854 76.0534 28.4115 75.4883 27.9375C74.9232 27.4453 74.3672 26.9805 73.8203 26.543C73.2734 26.1055 72.7721 25.7227 72.3164 25.3945C71.5508 26.7617 70.6393 28.1745 69.582 29.6328C68.5247 31.0729 67.3581 32.5404 66.082 34.0352C64.8242 35.5117 63.4753 36.9974 62.0352 38.4922C60.6133 39.9688 59.1549 41.418 57.6602 42.8398C56.1654 44.2435 54.6615 45.6107 53.1484 46.9414C51.6354 48.2539 50.1589 49.4935 48.7188 50.6602C50.2682 47.2513 51.7995 43.7331 53.3125 40.1055C54.8438 36.4779 56.4023 32.6042 57.9883 28.4844C57.6602 28.0833 57.25 27.6549 56.7578 27.1992C56.2839 26.7253 55.7734 26.2513 55.2266 25.7773C54.6797 25.2852 54.1146 24.793 53.5312 24.3008C52.9661 23.7904 52.4193 23.2799 51.8906 22.7695C51.0521 25.6862 50.1497 28.612 49.1836 31.5469C48.2357 34.4635 47.2513 37.3346 46.2305 40.1602C45.2096 42.9857 44.1706 45.7292 43.1133 48.3906C43.0384 48.5811 42.9636 48.7709 42.8888 48.9601C42.9683 45.0559 43.185 41.4442 43.5391 38.125C43.9766 34.0052 44.5599 30.1771 45.2891 26.6406C46.0182 23.0859 46.8659 19.75 47.832 16.6328Z" fill="white"/>
</g>
<defs>
<filter id="filter0_d" x="0.273438" y="0.636719" width="82.2773" height="81.7031" filterUnits="userSpaceOnUse" color-interpolation-filters="sRGB">
<feFlood flood-opacity="0" result="BackgroundImageFix"/>
<feColorMatrix in="SourceAlpha" type="matrix" values="0 0 0 0 0 0 0 0 0 0 0 0 0 0 0 0 0 0 127 0"/>
<feOffset dy="4"/>
<feGaussianBlur stdDeviation="2"/>
<feColorMatrix type="matrix" values="0 0 0 0 0 0 0 0 0 0 0 0 0 0 0 0 0 0 0.25 0"/>
<feBlend mode="normal" in2="BackgroundImageFix" result="effect1_dropShadow"/>
<feBlend mode="normal" in="SourceGraphic" in2="effect1_dropShadow" result="shape"/>
</filter>
</defs>
</svg>
